<svg width="639" height="111" viewBox="0 0 639 111" fill="none" xmlns="http://www.w3.org/2000/svg">
<g clip-path="url(#clip0_0_1)">
<path d="M639 26H0V111H639V26Z" fill="white"/>
<path d="M156.976 32.8633L156.842 105.241L7.58643 105.222L7.71998 32.8439L156.976 32.8633Z" fill="#7FCD63"/>
<path d="M314.797 32.8633L314.664 105.241L165.408 105.222L165.541 32.8439L314.797 32.8633Z" fill="#FFB647"/>
<path d="M472.646 32.0405L472.512 104.418L323.256 104.399L323.39 32.0211L472.646 32.0405Z" fill="#E37456"/>
<path d="M630.494 32.0405L630.361 104.418L481.105 104.399L481.238 32.0211L630.494 32.0405Z" fill="#A6001A"/>
<path d="M45.9457 1.54544H48.4684L54.4002 16.0341H54.6048L60.5366 1.54544H63.0593V19H61.082V5.73863H60.9116L55.457 19H53.5479L48.0934 5.73863H47.9229V19H45.9457V1.54544ZM70.8768 19.3068C70.0472 19.3068 69.2944 19.1506 68.6183 18.8381C67.9421 18.5199 67.4052 18.0625 67.0075 17.4659C66.6097 16.8636 66.4109 16.1364 66.4109 15.2841C66.4109 14.5341 66.5586 13.9261 66.854 13.4602C67.1495 12.9886 67.5444 12.6193 68.0387 12.3523C68.533 12.0852 69.0785 11.8864 69.6751 11.7557C70.2773 11.6193 70.8825 11.5114 71.4904 11.4318C72.2859 11.3295 72.9308 11.2528 73.4251 11.2017C73.9251 11.1449 74.2887 11.0511 74.516 10.9205C74.7489 10.7898 74.8654 10.5625 74.8654 10.2386V10.1705C74.8654 9.32954 74.6353 8.67613 74.1751 8.21022C73.7205 7.74431 73.0302 7.51135 72.104 7.51135C71.1438 7.51135 70.391 7.72158 69.8455 8.14204C69.3001 8.56249 68.9165 9.01135 68.695 9.48863L66.7859 8.80681C67.1268 8.01135 67.5813 7.39204 68.1495 6.94885C68.7234 6.49999 69.3484 6.18749 70.0245 6.01135C70.7063 5.82954 71.3768 5.73863 72.0359 5.73863C72.4563 5.73863 72.9393 5.78976 73.4847 5.89203C74.0359 5.98863 74.5671 6.19033 75.0785 6.49715C75.5955 6.80397 76.0245 7.26704 76.3654 7.88635C76.7063 8.50567 76.8768 9.33522 76.8768 10.375V19H74.8654V17.2273H74.7631C74.6268 17.5114 74.3995 17.8153 74.0813 18.1392C73.7631 18.4631 73.3398 18.7386 72.8114 18.9659C72.283 19.1932 71.6381 19.3068 70.8768 19.3068ZM71.1836 17.5C71.979 17.5 72.6495 17.3438 73.195 17.0312C73.7461 16.7188 74.1609 16.3153 74.4393 15.821C74.7234 15.3267 74.8654 14.8068 74.8654 14.2614V12.4205C74.7802 12.5227 74.5927 12.6165 74.3029 12.7017C74.0188 12.7812 73.6893 12.8523 73.3143 12.9148C72.945 12.9716 72.5842 13.0227 72.2319 13.0682C71.8853 13.108 71.604 13.142 71.3881 13.1705C70.8654 13.2386 70.3768 13.3494 69.9222 13.5028C69.4734 13.6506 69.1097 13.875 68.8313 14.1761C68.5586 14.4716 68.4222 14.875 68.4222 15.3864C68.4222 16.0852 68.6808 16.6136 69.1978 16.9716C69.7205 17.3239 70.3825 17.5 71.1836 17.5ZM86.2411 5.90908V7.61363H79.457V5.90908H86.2411ZM81.4343 2.77272H83.4457V15.25C83.4457 15.8182 83.5281 16.2443 83.6928 16.5284C83.8633 16.8068 84.0792 16.9943 84.3406 17.0909C84.6076 17.1818 84.8888 17.2273 85.1843 17.2273C85.4059 17.2273 85.5877 17.2159 85.7298 17.1932C85.8718 17.1648 85.9854 17.142 86.0707 17.125L86.4798 18.9318C86.3434 18.983 86.1531 19.0341 85.9087 19.0852C85.6644 19.142 85.3548 19.1705 84.9798 19.1705C84.4116 19.1705 83.8548 19.0483 83.3093 18.804C82.7695 18.5597 82.3207 18.1875 81.9627 17.6875C81.6104 17.1875 81.4343 16.5568 81.4343 15.7955V2.77272ZM93.119 19.3068C92.2894 19.3068 91.5366 19.1506 90.8604 18.8381C90.1843 18.5199 89.6474 18.0625 89.2496 17.4659C88.8519 16.8636 88.6531 16.1364 88.6531 15.2841C88.6531 14.5341 88.8008 13.9261 89.0962 13.4602C89.3917 12.9886 89.7866 12.6193 90.2809 12.3523C90.7752 12.0852 91.3207 11.8864 91.9173 11.7557C92.5195 11.6193 93.1246 11.5114 93.7326 11.4318C94.5281 11.3295 95.1729 11.2528 95.6673 11.2017C96.1673 11.1449 96.5309 11.0511 96.7582 10.9205C96.9911 10.7898 97.1076 10.5625 97.1076 10.2386V10.1705C97.1076 9.32954 96.8775 8.67613 96.4173 8.21022C95.9627 7.74431 95.2724 7.51135 94.3462 7.51135C93.386 7.51135 92.6332 7.72158 92.0877 8.14204C91.5423 8.56249 91.1587 9.01135 90.9371 9.48863L89.0281 8.80681C89.369 8.01135 89.8235 7.39204 90.3917 6.94885C90.9656 6.49999 91.5906 6.18749 92.2667 6.01135C92.9485 5.82954 93.619 5.73863 94.2781 5.73863C94.6985 5.73863 95.1815 5.78976 95.7269 5.89203C96.2781 5.98863 96.8093 6.19033 97.3207 6.49715C97.8377 6.80397 98.2667 7.26704 98.6076 7.88635C98.9485 8.50567 99.119 9.33522 99.119 10.375V19H97.1076V17.2273H97.0053C96.869 17.5114 96.6417 17.8153 96.3235 18.1392C96.0053 18.4631 95.582 18.7386 95.0536 18.9659C94.5252 19.1932 93.8803 19.3068 93.119 19.3068ZM93.4258 17.5C94.2212 17.5 94.8917 17.3438 95.4371 17.0312C95.9883 16.7188 96.4031 16.3153 96.6815 15.821C96.9656 15.3267 97.1076 14.8068 97.1076 14.2614V12.4205C97.0224 12.5227 96.8349 12.6165 96.5451 12.7017C96.261 12.7812 95.9315 12.8523 95.5565 12.9148C95.1871 12.9716 94.8263 13.0227 94.4741 13.0682C94.1275 13.108 93.8462 13.142 93.6303 13.1705C93.1076 13.2386 92.619 13.3494 92.1644 13.5028C91.7156 13.6506 91.3519 13.875 91.0735 14.1761C90.8008 14.4716 90.6644 14.875 90.6644 15.3864C90.6644 16.0852 90.9229 16.6136 91.44 16.9716C91.9627 17.3239 92.6246 17.5 93.4258 17.5ZM104.801 1.54544V19H102.79V1.54544H104.801ZM112.338 19.3068C111.508 19.3068 110.755 19.1506 110.079 18.8381C109.403 18.5199 108.866 18.0625 108.468 17.4659C108.071 16.8636 107.872 16.1364 107.872 15.2841C107.872 14.5341 108.02 13.9261 108.315 13.4602C108.61 12.9886 109.005 12.6193 109.5 12.3523C109.994 12.0852 110.539 11.8864 111.136 11.7557C111.738 11.6193 112.343 11.5114 112.951 11.4318C113.747 11.3295 114.392 11.2528 114.886 11.2017C115.386 11.1449 115.75 11.0511 115.977 10.9205C116.21 10.7898 116.326 10.5625 116.326 10.2386V10.1705C116.326 9.32954 116.096 8.67613 115.636 8.21022C115.181 7.74431 114.491 7.51135 113.565 7.51135C112.605 7.51135 111.852 7.72158 111.306 8.14204C110.761 8.56249 110.377 9.01135 110.156 9.48863L108.247 8.80681C108.588 8.01135 109.042 7.39204 109.61 6.94885C110.184 6.49999 110.809 6.18749 111.485 6.01135C112.167 5.82954 112.838 5.73863 113.497 5.73863C113.917 5.73863 114.4 5.78976 114.946 5.89203C115.497 5.98863 116.028 6.19033 116.539 6.49715C117.056 6.80397 117.485 7.26704 117.826 7.88635C118.167 8.50567 118.338 9.33522 118.338 10.375V19H116.326V17.2273H116.224C116.088 17.5114 115.86 17.8153 115.542 18.1392C115.224 18.4631 114.801 18.7386 114.272 18.9659C113.744 19.1932 113.099 19.3068 112.338 19.3068ZM112.645 17.5C113.44 17.5 114.11 17.3438 114.656 17.0312C115.207 16.7188 115.622 16.3153 115.9 15.821C116.184 15.3267 116.326 14.8068 116.326 14.2614V12.4205C116.241 12.5227 116.054 12.6165 115.764 12.7017C115.48 12.7812 115.15 12.8523 114.775 12.9148C114.406 12.9716 114.045 13.0227 113.693 13.0682C113.346 13.108 113.065 13.142 112.849 13.1705C112.326 13.2386 111.838 13.3494 111.383 13.5028C110.934 13.6506 110.571 13.875 110.292 14.1761C110.02 14.4716 109.883 14.875 109.883 15.3864C109.883 16.0852 110.142 16.6136 110.659 16.9716C111.181 17.3239 111.843 17.5 112.645 17.5Z" fill="white"/>
<path d="M182.383 18V0.545454H184.497V9.20455H184.701L192.542 0.545454H195.304L187.974 8.42045L195.304 18H192.747L186.679 9.88636L184.497 12.3409V18H182.383ZM202.294 18.2727C201.033 18.2727 199.945 17.9943 199.03 17.4375C198.121 16.875 197.419 16.0909 196.925 15.0852C196.436 14.0739 196.192 12.8977 196.192 11.5568C196.192 10.2159 196.436 9.03409 196.925 8.01136C197.419 6.98295 198.107 6.18182 198.988 5.60795C199.874 5.02841 200.908 4.73864 202.09 4.73864C202.772 4.73864 203.445 4.85227 204.11 5.07954C204.775 5.30682 205.38 5.67614 205.925 6.1875C206.471 6.69318 206.905 7.36364 207.229 8.19886C207.553 9.03409 207.715 10.0625 207.715 11.2841V12.1364H197.624V10.3977H205.669C205.669 9.65909 205.522 9 205.226 8.42045C204.936 7.84091 204.522 7.38352 203.982 7.0483C203.448 6.71307 202.817 6.54545 202.09 6.54545C201.289 6.54545 200.596 6.74432 200.01 7.14205C199.431 7.53409 198.985 8.04545 198.672 8.67614C198.36 9.30682 198.203 9.98295 198.203 10.7045V11.8636C198.203 12.8523 198.374 13.6903 198.715 14.3778C199.061 15.0597 199.542 15.5795 200.155 15.9375C200.769 16.2898 201.482 16.4659 202.294 16.4659C202.823 16.4659 203.3 16.392 203.726 16.2443C204.158 16.0909 204.53 15.8636 204.843 15.5625C205.155 15.2557 205.397 14.875 205.567 14.4205L207.51 14.9659C207.306 15.625 206.962 16.2045 206.479 16.7045C205.996 17.1989 205.4 17.5852 204.689 17.8636C203.979 18.1364 203.181 18.2727 202.294 18.2727ZM220.047 7.84091L218.24 8.35227C218.127 8.05114 217.959 7.75852 217.738 7.47443C217.522 7.18466 217.226 6.94602 216.851 6.75852C216.476 6.57102 215.996 6.47727 215.411 6.47727C214.61 6.47727 213.942 6.66193 213.408 7.03125C212.88 7.39489 212.615 7.85795 212.615 8.42045C212.615 8.92045 212.797 9.31534 213.161 9.60511C213.525 9.89489 214.093 10.1364 214.865 10.3295L216.809 10.8068C217.979 11.0909 218.851 11.5256 219.425 12.1108C219.999 12.6903 220.286 13.4375 220.286 14.3523C220.286 15.1023 220.07 15.7727 219.638 16.3636C219.212 16.9545 218.615 17.4205 217.848 17.7614C217.081 18.1023 216.189 18.2727 215.172 18.2727C213.837 18.2727 212.732 17.983 211.857 17.4034C210.982 16.8239 210.428 15.9773 210.195 14.8636L212.104 14.3864C212.286 15.0909 212.63 15.6193 213.135 15.9716C213.647 16.3239 214.314 16.5 215.138 16.5C216.076 16.5 216.82 16.3011 217.371 15.9034C217.928 15.5 218.206 15.017 218.206 14.4545C218.206 14 218.047 13.6193 217.729 13.3125C217.411 13 216.922 12.767 216.263 12.6136L214.081 12.1023C212.882 11.8182 212.002 11.3778 211.439 10.7812C210.882 10.179 210.604 9.42614 210.604 8.52273C210.604 7.78409 210.811 7.13068 211.226 6.5625C211.647 5.99432 212.218 5.5483 212.939 5.22443C213.667 4.90057 214.49 4.73864 215.411 4.73864C216.706 4.73864 217.723 5.02273 218.462 5.59091C219.206 6.15909 219.735 6.90909 220.047 7.84091ZM225.189 13.2273L225.154 10.7386H225.564L231.291 4.90909H233.779L227.677 11.0795H227.507L225.189 13.2273ZM223.314 18V0.545454H225.325V18H223.314ZM231.632 18L226.518 11.5227L227.95 10.125L234.189 18H231.632ZM236.368 18V4.90909H238.38V18H236.368ZM237.391 2.72727C236.999 2.72727 236.661 2.59375 236.377 2.3267C236.098 2.05966 235.959 1.73864 235.959 1.36364C235.959 0.988636 236.098 0.667614 236.377 0.400568C236.661 0.133523 236.999 0 237.391 0C237.783 0 238.118 0.133523 238.397 0.400568C238.681 0.667614 238.823 0.988636 238.823 1.36364C238.823 1.73864 238.681 2.05966 238.397 2.3267C238.118 2.59375 237.783 2.72727 237.391 2.72727ZM252.768 4.90909L247.927 18H245.882L241.041 4.90909H243.223L246.836 15.3409H246.973L250.586 4.90909H252.768ZM260.443 18.2727C259.181 18.2727 258.093 17.9943 257.179 17.4375C256.27 16.875 255.568 16.0909 255.074 15.0852C254.585 14.0739 254.341 12.8977 254.341 11.5568C254.341 10.2159 254.585 9.03409 255.074 8.01136C255.568 6.98295 256.255 6.18182 257.136 5.60795C258.022 5.02841 259.056 4.73864 260.238 4.73864C260.92 4.73864 261.593 4.85227 262.258 5.07954C262.923 5.30682 263.528 5.67614 264.074 6.1875C264.619 6.69318 265.054 7.36364 265.377 8.19886C265.701 9.03409 265.863 10.0625 265.863 11.2841V12.1364H255.772V10.3977H263.818C263.818 9.65909 263.67 9 263.375 8.42045C263.085 7.84091 262.67 7.38352 262.13 7.0483C261.596 6.71307 260.966 6.54545 260.238 6.54545C259.437 6.54545 258.744 6.74432 258.159 7.14205C257.579 7.53409 257.133 8.04545 256.821 8.67614C256.508 9.30682 256.352 9.98295 256.352 10.7045V11.8636C256.352 12.8523 256.522 13.6903 256.863 14.3778C257.21 15.0597 257.69 15.5795 258.304 15.9375C258.917 16.2898 259.63 16.4659 260.443 16.4659C260.971 16.4659 261.449 16.392 261.875 16.2443C262.306 16.0909 262.679 15.8636 262.991 15.5625C263.304 15.2557 263.545 14.875 263.716 14.4205L265.659 14.9659C265.454 15.625 265.11 16.2045 264.627 16.7045C264.145 17.1989 263.548 17.5852 262.838 17.8636C262.127 18.1364 261.329 18.2727 260.443 18.2727ZM268.923 18V4.90909H270.866V6.88636H271.002C271.241 6.23864 271.673 5.71307 272.298 5.30966C272.923 4.90625 273.627 4.70454 274.412 4.70454C274.559 4.70454 274.744 4.70739 274.966 4.71307C275.187 4.71875 275.355 4.72727 275.468 4.73864V6.78409C275.4 6.76705 275.244 6.74148 275 6.70739C274.761 6.66761 274.508 6.64773 274.241 6.64773C273.605 6.64773 273.037 6.78125 272.537 7.0483C272.042 7.30966 271.65 7.6733 271.36 8.1392C271.076 8.59943 270.934 9.125 270.934 9.71591V18H268.923ZM284.366 4.90909V6.61364H277.582V4.90909H284.366ZM279.559 1.77273H281.571V14.25C281.571 14.8182 281.653 15.2443 281.818 15.5284C281.988 15.8068 282.204 15.9943 282.466 16.0909C282.733 16.1818 283.014 16.2273 283.309 16.2273C283.531 16.2273 283.713 16.2159 283.855 16.1932C283.997 16.1648 284.11 16.142 284.196 16.125L284.605 17.9318C284.468 17.983 284.278 18.0341 284.034 18.0852C283.789 18.142 283.48 18.1705 283.105 18.1705C282.537 18.1705 281.98 18.0483 281.434 17.804C280.895 17.5597 280.446 17.1875 280.088 16.6875C279.735 16.1875 279.559 15.5568 279.559 14.7955V1.77273ZM292.569 18.2727C291.387 18.2727 290.35 17.9915 289.458 17.429C288.572 16.8665 287.879 16.0795 287.379 15.0682C286.885 14.0568 286.637 12.875 286.637 11.5227C286.637 10.1591 286.885 8.96875 287.379 7.9517C287.879 6.93466 288.572 6.14489 289.458 5.58239C290.35 5.01989 291.387 4.73864 292.569 4.73864C293.751 4.73864 294.785 5.01989 295.672 5.58239C296.564 6.14489 297.257 6.93466 297.751 7.9517C298.251 8.96875 298.501 10.1591 298.501 11.5227C298.501 12.875 298.251 14.0568 297.751 15.0682C297.257 16.0795 296.564 16.8665 295.672 17.429C294.785 17.9915 293.751 18.2727 292.569 18.2727ZM292.569 16.4659C293.467 16.4659 294.206 16.2358 294.785 15.7756C295.365 15.3153 295.794 14.7102 296.072 13.9602C296.35 13.2102 296.49 12.3977 296.49 11.5227C296.49 10.6477 296.35 9.83239 296.072 9.0767C295.794 8.32102 295.365 7.71023 294.785 7.24432C294.206 6.77841 293.467 6.54545 292.569 6.54545C291.672 6.54545 290.933 6.77841 290.353 7.24432C289.774 7.71023 289.345 8.32102 289.066 9.0767C288.788 9.83239 288.649 10.6477 288.649 11.5227C288.649 12.3977 288.788 13.2102 289.066 13.9602C289.345 14.7102 289.774 15.3153 290.353 15.7756C290.933 16.2358 291.672 16.4659 292.569 16.4659Z" fill="white"/>
<path d="M360.637 18V0.545441H362.751V9.20454H362.955L370.796 0.545441H373.558L366.228 8.42044L373.558 18H371.001L364.933 9.88635L362.751 12.3409V18H360.637ZM380.378 18.2727C379.196 18.2727 378.159 17.9915 377.267 17.429C376.381 16.8665 375.688 16.0795 375.188 15.0682C374.693 14.0568 374.446 12.875 374.446 11.5227C374.446 10.1591 374.693 8.96874 375.188 7.95169C375.688 6.93465 376.381 6.14488 377.267 5.58238C378.159 5.01988 379.196 4.73863 380.378 4.73863C381.56 4.73863 382.594 5.01988 383.48 5.58238C384.372 6.14488 385.065 6.93465 385.56 7.95169C386.06 8.96874 386.31 10.1591 386.31 11.5227C386.31 12.875 386.06 14.0568 385.56 15.0682C385.065 16.0795 384.372 16.8665 383.48 17.429C382.594 17.9915 381.56 18.2727 380.378 18.2727ZM380.378 16.4659C381.276 16.4659 382.014 16.2358 382.594 15.7756C383.173 15.3153 383.602 14.7102 383.881 13.9602C384.159 13.2102 384.298 12.3977 384.298 11.5227C384.298 10.6477 384.159 9.83238 383.881 9.07669C383.602 8.32101 383.173 7.71022 382.594 7.24431C382.014 6.7784 381.276 6.54544 380.378 6.54544C379.48 6.54544 378.741 6.7784 378.162 7.24431C377.582 7.71022 377.153 8.32101 376.875 9.07669C376.597 9.83238 376.457 10.6477 376.457 11.5227C376.457 12.3977 376.597 13.2102 376.875 13.9602C377.153 14.7102 377.582 15.3153 378.162 15.7756C378.741 16.2358 379.48 16.4659 380.378 16.4659ZM389.38 18V4.90908H391.323V6.88635H391.46C391.698 6.23863 392.13 5.71306 392.755 5.30965C393.38 4.90624 394.085 4.70453 394.869 4.70453C395.016 4.70453 395.201 4.70738 395.423 4.71306C395.644 4.71874 395.812 4.72726 395.925 4.73863V6.78408C395.857 6.76704 395.701 6.74147 395.457 6.70738C395.218 6.6676 394.965 6.64772 394.698 6.64772C394.062 6.64772 393.494 6.78124 392.994 7.04829C392.499 7.30965 392.107 7.67329 391.817 8.13919C391.533 8.59942 391.391 9.12499 391.391 9.7159V18H389.38ZM400.185 13.2273L400.151 10.7386H400.56L406.287 4.90908H408.776L402.673 11.0795H402.503L400.185 13.2273ZM398.31 18V0.545441H400.321V18H398.31ZM406.628 18L401.514 11.5227L402.946 10.125L409.185 18H406.628ZM416.314 18.2727C415.053 18.2727 413.964 17.9943 413.05 17.4375C412.141 16.875 411.439 16.0909 410.945 15.0852C410.456 14.0739 410.212 12.8977 410.212 11.5568C410.212 10.2159 410.456 9.03408 410.945 8.01135C411.439 6.98294 412.126 6.18181 413.007 5.60794C413.893 5.0284 414.928 4.73863 416.109 4.73863C416.791 4.73863 417.464 4.85226 418.129 5.07953C418.794 5.30681 419.399 5.67613 419.945 6.18749C420.49 6.69317 420.925 7.36363 421.249 8.19885C421.572 9.03408 421.734 10.0625 421.734 11.2841V12.1364H411.643V10.3977H419.689C419.689 9.65908 419.541 8.99999 419.246 8.42044C418.956 7.8409 418.541 7.38351 418.001 7.04829C417.467 6.71306 416.837 6.54544 416.109 6.54544C415.308 6.54544 414.615 6.74431 414.03 7.14204C413.45 7.53408 413.004 8.04544 412.692 8.67613C412.379 9.30681 412.223 9.98294 412.223 10.7045V11.8636C412.223 12.8523 412.393 13.6903 412.734 14.3778C413.081 15.0597 413.561 15.5795 414.175 15.9375C414.788 16.2898 415.501 16.4659 416.314 16.4659C416.842 16.4659 417.32 16.392 417.746 16.2443C418.178 16.0909 418.55 15.8636 418.862 15.5625C419.175 15.2557 419.416 14.875 419.587 14.4205L421.53 14.9659C421.325 15.625 420.982 16.2045 420.499 16.7045C420.016 17.1989 419.419 17.5852 418.709 17.8636C417.999 18.1364 417.2 18.2727 416.314 18.2727ZM428.646 18.3068C427.817 18.3068 427.064 18.1506 426.388 17.8381C425.712 17.5199 425.175 17.0625 424.777 16.4659C424.379 15.8636 424.18 15.1364 424.18 14.2841C424.18 13.5341 424.328 12.9261 424.624 12.4602C424.919 11.9886 425.314 11.6193 425.808 11.3523C426.303 11.0852 426.848 10.8864 427.445 10.7557C428.047 10.6193 428.652 10.5114 429.26 10.4318C430.055 10.3295 430.7 10.2528 431.195 10.2017C431.695 10.1449 432.058 10.0511 432.286 9.92044C432.518 9.78976 432.635 9.56249 432.635 9.23863V9.17044C432.635 8.32954 432.405 7.67613 431.945 7.21022C431.49 6.74431 430.8 6.51135 429.874 6.51135C428.913 6.51135 428.161 6.72158 427.615 7.14204C427.07 7.56249 426.686 8.01135 426.464 8.48863L424.555 7.80681C424.896 7.01135 425.351 6.39204 425.919 5.94885C426.493 5.49999 427.118 5.18749 427.794 5.01135C428.476 4.82954 429.146 4.73863 429.805 4.73863C430.226 4.73863 430.709 4.78976 431.254 4.89203C431.805 4.98863 432.337 5.19033 432.848 5.49715C433.365 5.80397 433.794 6.26704 434.135 6.88635C434.476 7.50567 434.646 8.33522 434.646 9.37499V18H432.635V16.2273H432.533C432.396 16.5114 432.169 16.8153 431.851 17.1392C431.533 17.4631 431.109 17.7386 430.581 17.9659C430.053 18.1932 429.408 18.3068 428.646 18.3068ZM428.953 16.5C429.749 16.5 430.419 16.3438 430.964 16.0312C431.516 15.7188 431.93 15.3153 432.209 14.821C432.493 14.3267 432.635 13.8068 432.635 13.2614V11.4205C432.55 11.5227 432.362 11.6165 432.072 11.7017C431.788 11.7812 431.459 11.8523 431.084 11.9148C430.714 11.9716 430.354 12.0227 430.001 12.0682C429.655 12.108 429.374 12.142 429.158 12.1705C428.635 12.2386 428.146 12.3494 427.692 12.5028C427.243 12.6506 426.879 12.875 426.601 13.1761C426.328 13.4716 426.192 13.875 426.192 14.3864C426.192 15.0852 426.45 15.6136 426.967 15.9716C427.49 16.3239 428.152 16.5 428.953 16.5Z" fill="white"/>
<path d="M516.114 18V0.545441H522.011C523.375 0.545441 524.494 0.778396 525.369 1.24431C526.244 1.70453 526.892 2.33806 527.312 3.14488C527.733 3.95169 527.943 4.86931 527.943 5.89772C527.943 6.92613 527.733 7.83806 527.312 8.63351C526.892 9.42897 526.247 10.054 525.378 10.5085C524.509 10.9574 523.398 11.1818 522.045 11.1818H517.273V9.27272H521.977C522.909 9.27272 523.659 9.13635 524.227 8.86363C524.801 8.5909 525.216 8.20454 525.472 7.70454C525.733 7.19885 525.864 6.59658 525.864 5.89772C525.864 5.19885 525.733 4.58806 525.472 4.06533C525.21 3.5426 524.793 3.13919 524.219 2.8551C523.645 2.56533 522.886 2.42044 521.943 2.42044H518.227V18H516.114ZM524.33 10.1591L528.625 18H526.17L521.943 10.1591H524.33ZM539.442 12.6477V4.90908H541.454V18H539.442V15.7841H539.306C538.999 16.4489 538.522 17.0142 537.874 17.4801C537.227 17.9403 536.408 18.1705 535.42 18.1705C534.602 18.1705 533.874 17.9915 533.238 17.6335C532.602 17.2699 532.102 16.7244 531.738 15.9972C531.374 15.2642 531.192 14.3409 531.192 13.2273V4.90908H533.204V13.0909C533.204 14.0455 533.471 14.8068 534.005 15.375C534.545 15.9432 535.232 16.2273 536.067 16.2273C536.567 16.2273 537.076 16.0994 537.593 15.8438C538.116 15.5881 538.553 15.196 538.906 14.6676C539.263 14.1392 539.442 13.4659 539.442 12.6477ZM553.388 12.6477V4.90908H555.399V18H553.388V15.7841H553.251C552.945 16.4489 552.467 17.0142 551.82 17.4801C551.172 17.9403 550.354 18.1705 549.365 18.1705C548.547 18.1705 547.82 17.9915 547.183 17.6335C546.547 17.2699 546.047 16.7244 545.683 15.9972C545.32 15.2642 545.138 14.3409 545.138 13.2273V4.90908H547.149V13.0909C547.149 14.0455 547.416 14.8068 547.95 15.375C548.49 15.9432 549.178 16.2273 550.013 16.2273C550.513 16.2273 551.021 16.0994 551.538 15.8438C552.061 15.5881 552.499 15.196 552.851 14.6676C553.209 14.1392 553.388 13.4659 553.388 12.6477ZM561.094 10.125V18H559.083V0.545441H561.094V6.95454H561.265C561.572 6.2784 562.032 5.74147 562.646 5.34374C563.265 4.94033 564.089 4.73863 565.117 4.73863C566.009 4.73863 566.79 4.9176 567.461 5.27556C568.131 5.62783 568.651 6.17044 569.021 6.9034C569.396 7.63067 569.583 8.55681 569.583 9.68181V18H567.572V9.81817C567.572 8.7784 567.302 7.97442 566.762 7.40624C566.228 6.83238 565.487 6.54544 564.538 6.54544C563.879 6.54544 563.288 6.68465 562.765 6.96306C562.248 7.24147 561.839 7.64772 561.538 8.18181C561.242 8.7159 561.094 9.36363 561.094 10.125ZM575.138 13.2273L575.104 10.7386H575.513L581.24 4.90908H583.729L577.626 11.0795H577.456L575.138 13.2273ZM573.263 18V0.545441H575.274V18H573.263ZM581.581 18L576.467 11.5227L577.899 10.125L584.138 18H581.581ZM590.17 18.3068C589.34 18.3068 588.587 18.1506 587.911 17.8381C587.235 17.5199 586.698 17.0625 586.3 16.4659C585.903 15.8636 585.704 15.1364 585.704 14.2841C585.704 13.5341 585.852 12.9261 586.147 12.4602C586.442 11.9886 586.837 11.6193 587.332 11.3523C587.826 11.0852 588.371 10.8864 588.968 10.7557C589.57 10.6193 590.175 10.5114 590.783 10.4318C591.579 10.3295 592.224 10.2528 592.718 10.2017C593.218 10.1449 593.582 10.0511 593.809 9.92044C594.042 9.78976 594.158 9.56249 594.158 9.23863V9.17044C594.158 8.32954 593.928 7.67613 593.468 7.21022C593.013 6.74431 592.323 6.51135 591.397 6.51135C590.437 6.51135 589.684 6.72158 589.138 7.14204C588.593 7.56249 588.21 8.01135 587.988 8.48863L586.079 7.80681C586.42 7.01135 586.874 6.39204 587.442 5.94885C588.016 5.49999 588.641 5.18749 589.317 5.01135C589.999 4.82954 590.67 4.73863 591.329 4.73863C591.749 4.73863 592.232 4.78976 592.778 4.89203C593.329 4.98863 593.86 5.19033 594.371 5.49715C594.888 5.80397 595.317 6.26704 595.658 6.88635C595.999 7.50567 596.17 8.33522 596.17 9.37499V18H594.158V16.2273H594.056C593.92 16.5114 593.692 16.8153 593.374 17.1392C593.056 17.4631 592.633 17.7386 592.104 17.9659C591.576 18.1932 590.931 18.3068 590.17 18.3068ZM590.477 16.5C591.272 16.5 591.942 16.3438 592.488 16.0312C593.039 15.7188 593.454 15.3153 593.732 14.821C594.016 14.3267 594.158 13.8068 594.158 13.2614V11.4205C594.073 11.5227 593.886 11.6165 593.596 11.7017C593.312 11.7812 592.982 11.8523 592.607 11.9148C592.238 11.9716 591.877 12.0227 591.525 12.0682C591.178 12.108 590.897 12.142 590.681 12.1705C590.158 12.2386 589.67 12.3494 589.215 12.5028C588.766 12.6506 588.403 12.875 588.124 13.1761C587.852 13.4716 587.715 13.875 587.715 14.3864C587.715 15.0852 587.974 15.6136 588.491 15.9716C589.013 16.3239 589.675 16.5 590.477 16.5Z" fill="white"/>
<path d="M88 27H77V110H88V27Z" fill="#182538" stroke="white" stroke-width="2"/>
</g>
<defs>
<clipPath id="clip0_0_1">
<rect width="639" height="111" fill="white"/>
</clipPath>
</defs>
</svg>
